<?xml version="1.0" encoding="UTF-8"?>
<svg xmlns="http://www.w3.org/2000/svg" xmlns:xlink="http://www.w3.org/1999/xlink" width="32px" height="32px" viewBox="0 0 32 32" version="1.1">
<g id="surface1">
<path style=" stroke:none;fill-rule:nonzero;fill:rgb(0%,0%,0%);fill-opacity:1;" d="M 27.839844 4.132812 C 26.863281 3.15625 25.6875 2.667969 24.3125 2.667969 L 7.660156 2.667969 C 6.285156 2.667969 5.109375 3.15625 4.132812 4.132812 C 3.15625 5.109375 2.667969 6.285156 2.667969 7.660156 L 2.667969 24.3125 C 2.667969 25.6875 3.15625 26.863281 4.132812 27.839844 C 5.109375 28.816406 6.285156 29.304688 7.660156 29.304688 L 11.546875 29.304688 C 11.800781 29.304688 11.992188 29.296875 12.117188 29.277344 C 12.269531 29.25 12.402344 29.167969 12.5 29.054688 C 12.625 28.921875 12.691406 28.726562 12.691406 28.472656 L 12.679688 27.292969 C 12.675781 26.542969 12.671875 25.945312 12.671875 25.507812 L 12.273438 25.574219 C 12.019531 25.621094 11.699219 25.644531 11.3125 25.636719 C 10.90625 25.628906 10.503906 25.589844 10.105469 25.515625 C 9.683594 25.4375 9.285156 25.257812 8.945312 24.996094 C 8.585938 24.726562 8.320312 24.355469 8.179688 23.929688 L 8.007812 23.53125 C 7.863281 23.214844 7.679688 22.917969 7.460938 22.644531 C 7.214844 22.320312 6.960938 22.101562 6.707031 21.988281 L 6.585938 21.898438 C 6.503906 21.839844 6.425781 21.769531 6.359375 21.691406 C 6.296875 21.621094 6.242188 21.539062 6.203125 21.449219 C 6.167969 21.367188 6.199219 21.300781 6.289062 21.25 C 6.382812 21.195312 6.550781 21.171875 6.792969 21.171875 L 7.140625 21.222656 C 7.371094 21.269531 7.660156 21.40625 8 21.636719 C 8.34375 21.875 8.628906 22.179688 8.839844 22.542969 C 9.105469 23.015625 9.425781 23.375 9.800781 23.625 C 10.179688 23.875 10.558594 24 10.9375 24 C 11.320312 24 11.648438 23.96875 11.929688 23.910156 C 12.199219 23.855469 12.460938 23.769531 12.707031 23.652344 C 12.8125 22.878906 13.09375 22.28125 13.558594 21.863281 C 12.957031 21.804688 12.363281 21.699219 11.78125 21.550781 C 11.210938 21.394531 10.664062 21.167969 10.148438 20.875 C 9.613281 20.582031 9.136719 20.1875 8.753906 19.714844 C 8.382812 19.25 8.078125 18.644531 7.84375 17.894531 C 7.605469 17.140625 7.488281 16.273438 7.488281 15.289062 C 7.488281 13.890625 7.945312 12.703125 8.855469 11.71875 C 8.429688 10.667969 8.46875 9.488281 8.980469 8.179688 C 9.316406 8.074219 9.8125 8.15625 10.46875 8.414062 C 11.128906 8.675781 11.613281 8.898438 11.917969 9.082031 C 12.226562 9.269531 12.46875 9.425781 12.65625 9.550781 C 13.738281 9.25 14.859375 9.097656 15.984375 9.101562 C 17.128906 9.101562 18.238281 9.25 19.316406 9.550781 L 19.976562 9.132812 C 20.480469 8.832031 21.015625 8.574219 21.570312 8.371094 C 22.183594 8.140625 22.652344 8.078125 22.976562 8.179688 C 23.496094 9.488281 23.542969 10.667969 23.113281 11.71875 C 24.027344 12.703125 24.484375 13.890625 24.484375 15.292969 C 24.484375 16.273438 24.367188 17.144531 24.128906 17.902344 C 23.890625 18.660156 23.585938 19.265625 23.210938 19.722656 C 22.832031 20.179688 22.367188 20.5625 21.804688 20.875 C 21.246094 21.1875 20.703125 21.414062 20.175781 21.550781 C 19.589844 21.703125 18.996094 21.804688 18.398438 21.867188 C 18.996094 22.386719 19.296875 23.207031 19.296875 24.328125 L 19.296875 28.472656 C 19.296875 28.667969 19.328125 28.828125 19.386719 28.949219 C 19.789062 29.246094 19.902344 29.277344 20 29.285156 C 20.101562 29.300781 20.242188 29.304688 20.425781 29.304688 L 24.3125 29.304688 C 25.6875 29.304688 26.863281 28.816406 27.839844 27.839844 C 28.816406 26.863281 29.304688 25.683594 29.304688 24.308594 L 29.304688 7.660156 C 29.304688 6.285156 28.816406 5.109375 27.839844 4.132812 Z M 27.839844 4.132812 "/>
</g>
</svg>
